<svg xmlns="http://www.w3.org/2000/svg" height="323.96" width="323.96"><rect stroke-linejoin="round" height="313.96" stroke="#d54c4c" stroke-linecap="round" stroke-width="10" fill="#fa5c5c" style="color:#000" ry="8.614" width="313.96" y="5" x="5"/><g fill="#fff"><path d="M59.159 220.2h22.626v67.062H59.16v-67.063zm11.45-5.451c-3.815 0-6.746-.956-8.791-2.862-2.044-1.908-3.067-4.452-3.067-7.634 0-2.999 1.022-5.544 3.067-7.633 2.045-2.09 4.976-3.135 8.79-3.135 3.818 0 6.748 1.045 8.792 3.135 2.046 2.09 3.068 4.634 3.068 7.632 0 3.18-1.022 5.725-3.067 7.633-2.043 1.907-4.974 2.862-8.79 2.862m44.151 73.865c-6.541 0-11.471-1.749-14.789-5.248-3.317-3.498-4.976-8.382-4.976-14.652v-31.757h-8.994v-16.767h8.995v-16.354h22.627v16.354h14.72v16.767h-14.723v28.488c0 2.09.431 3.567 1.295 4.43s2.203 1.294 4.02 1.294c2.454 0 5.135-1.089 8.042-3.27l5.18 14.857c-2.633 1.818-5.632 3.25-8.996 4.295s-7.498 1.567-12.403 1.567m54.76 0c-10.358 0-18.514-2.952-24.465-8.86-5.954-5.905-8.93-14.493-8.93-25.76 0-8.178 1.682-15.039 5.042-20.58 3.454-5.727 7.772-9.588 12.953-11.588 5.45-2.09 10.494-3.134 15.128-3.134 5.814 0 10.677 1.159 14.583 3.477 3.908 2.316 6.793 4.838 8.656 7.563s3.203 4.862 4.02 6.408l-15.674 10.084c-1.453-2.997-3.044-5.36-4.77-7.087-1.728-1.725-3.818-2.587-6.27-2.587-3.454 0-6.18 1.362-8.179 4.086-2 2.728-2.999 6.86-2.999 12.405 0 5.998 1.181 10.405 3.543 13.222s5.726 4.224 10.086 4.224c3.453 0 6.339-.633 8.657-1.907 2.315-1.27 4.518-2.905 6.608-4.906l7.226 16.902c-2.182 1.818-5.408 3.613-9.677 5.384-4.274 1.771-9.452 2.657-15.54 2.657m32.307-1.35v-91.05h22.762v27.67c1.909-1.364 4.226-2.568 6.95-3.612 2.728-1.045 5.999-1.568 9.816-1.568 7.995 0 13.971 2.272 17.924 6.816s5.93 10.95 5.93 19.218v42.526h-22.762v-39.8c0-3.817-.726-6.611-2.18-8.383s-3.365-2.658-5.727-2.658c-1.998 0-3.861.455-5.588 1.364-1.724.907-3.18 1.861-4.362 2.86v46.617h-22.76z"/><path style="color:#000" d="M160.16 353.9c-1.027-.043-2.157.149-3.346.602l-107.36 40.92c-4.754 1.812-8.582 7.112-8.582 11.885v107.77c0 4.772 3.828 7.153 8.582 5.341l.793-.302a7.394 7.394 0 0 1-.308-2.143v-107.77c0-4.772 3.843-10.076 8.615-11.891l106.57-40.52c-.67-2.36-2.517-3.79-4.955-3.893z" fill-opacity=".235" transform="matrix(.93721 .20267 0 .93721 60.853 -328.573)"/><path style="color:#000" d="M58.549 398.19c-4.772 1.815-8.615 7.119-8.615 11.891v107.77c0 4.772 3.843 7.152 8.615 5.337l107.77-40.98c4.772-1.814 8.613-7.116 8.613-11.888V362.55c0-4.772-3.84-7.154-8.613-5.34l-107.77 40.98zm30.461 23.154.008-.003c4.957-1.885 8.483-.013 9.732 4.35l27.4-10.419c1.248-5.313 4.751-9.857 9.71-11.743 7.874-2.994 16.531 1.8 19.233 10.653l6.457 21.138c2.704 8.853-1.535 18.551-9.41 21.545-6.913 2.629-14.427-.743-17.988-7.595l-43.436 16.516c-3.56 9.56-11.076 18.647-17.99 21.276-7.876 2.995-12.112-3.481-9.408-14.39l6.457-26.048c2.703-10.91 11.358-22.286 19.234-25.281zm17.035 7.56v8.806l-7.07 2.689 6.73 5.98 6.727 5.98 6.734-11.103 6.73-11.098-6.63 2.521v-8.803l-13.221 5.028z" transform="matrix(.93721 .20267 0 .93721 60.853 -328.573)"/></g></svg>