<svg xmlns="http://www.w3.org/2000/svg" width="256" height="256"><path d="M16 42h224v168H16V42Z" fill="#F8F8F8"/><path d="m103 65 5 10c5.125-.46 5.125-.46 7.438-4.125L118 68c5.098.098 5.098.098 7 2 .234 2.016.413 4.038.563 6.063l.253 3.347L126 82c3.383 1.128 4.768.818 8.188.063l2.73-.59L139 81c3.008 3.766 3.008 3.766 2.938 5.875C141 89 141 89 138.938 92c-2.3 2.965-2.3 2.965-1.938 7l2.371.402 3.066.535 3.06.528C148 101 148 101 149 102c.04 2.333.042 4.667 0 7-1.29.672-2.581 1.337-3.875 2l-2.18 1.125C141 113 141 113 139 113c1.318 5.667 3.487 7.664 8 11l-2 7-13 1a438.124 438.124 0 0 0 2 13c-3.383 3.02-3.383 3.02-5.875 2.938-2.125-.938-2.125-.938-5.063-3-3.252-2.058-4.37-2.132-8.062-1.938-.09 1.048-.09 1.048-.184 2.117l-.254 2.758c-.08.905-.162 1.81-.246 2.742C114 153 114 153 113 155h-7a651.927 651.927 0 0 1-2-3.875l-1.125-2.18C102 147 102 147 102 145c-5.593 1.364-8.912 4.154-13 8-2.45-1.113-2.45-1.113-5-3-.707-2.918-.707-2.918-.813-6.188l-.144-3.292L83 138l-2.738.324-3.575.363-3.55.387C70 139 70 139 68.078 137.66 67 136 67 136 67.062 133.75c.818-2.398 1.723-4.213 3-6.375 2.187-3.16 2.187-3.16 1.938-6.375-.922-.09-.922-.09-1.863-.184l-2.45-.254c-.8-.08-1.6-.162-2.425-.246C63 120 63 120 60 119c-.313-3.313-.313-3.313 0-7 2.25-1.813 2.25-1.813 5-3l2.313-1.188L69 107c-.318-5.4-3.2-7.523-7-11l2-7h13c-.52-4.38-1.057-8.688-2-13l6-4 1.355 1.094 1.832 1.406 1.793 1.406c2.37 1.49 2.37 1.49 7.02 1.094l3-11c4-1 4-1 7-1Z" fill="#CCD5DA"/><path d="M158 127h8l4 10c3.767-.37 6.45-.654 9.688-2.688L182 133c2.749.864 3.955 1.955 6 4-.297 2.747-.982 4.957-2.063 7.5-1.004 2.678-1.099 4.666-.937 7.5l3.188.375c3.272.536 5.817 1.264 8.812 2.625v7l-2.152.734-2.786 1.016-2.777.984c-2.406 1.048-2.406 1.048-3.226 3.192-.086 3.013 1.529 4.849 3.074 7.332.867 1.742.867 1.742.742 4.554C189 182 189 182 187 184c-4.488-.418-8.682-1.754-13-3h-2l-.402 2.117-.536 2.758-.527 2.742C170 191 170 191 169 193h-7a417.885 417.885 0 0 1-2-3.813l-1.125-2.144C158 185 158 185 158 182c-5.348.535-9.358 2.467-14 5l-5-4 .656-1.758c1.628-4.568 2.723-8.32 2.344-13.242l-3.813-.438c-2.614-.3-4.661-.72-7.187-1.562v-8l10-5c-.399-3.43-.802-5.692-2.688-8.625L137 142c.864-2.749 1.955-3.955 4-6 4.23.385 7.998 1.636 12 3h2l3-12Z" fill="#BAC3C7"/><path d="M16 42h224v168H16V42Zm1 8v158h222V50H17Z" fill="#85898C"/><path d="M116 96c4.256 4.187 6.14 7.837 6.25 13.813-.086 5.37-1.02 8.898-4.867 12.847-4.973 4.514-8.524 5.686-15.367 5.547-5.97-.613-9.226-4.203-12.817-8.586C85.95 115.23 86.384 110.25 87 105c1.722-4.671 4.305-7.868 8.563-10.438 7.367-3.348 13.38-3.01 20.437 1.438Z" fill="#F9F9F9"/><path d="M169 151c3.306 2.204 3.888 3.59 4.938 7.438.07 4.044-.372 5.483-2.938 8.562-3.035 2.53-4.519 3-8.5 3-4.277-1.222-5.943-2.358-8.5-6-.704-2.831-.731-5.173 0-8 4.591-5.679 7.957-6.771 15-5Z" fill="#F6F6F6"/><path d="M116.5 92.813c2.772 2.425 3.47 3.699 4.5 7.187l.813 1.781c2.34 5.265 2.729 9.632 1.187 15.219-1.934 3.481-4.04 6.336-7 9l-2-1 1.277-1.426 1.66-1.886 1.653-1.864c3.317-4.291 2.982-9.66 2.41-14.824-1.54-4.303-3.97-7.748-8-10-5.58-2.536-10.552-2.208-16.219-.223l-2.156.848L91 97l-2-1a399.97 399.97 0 0 1 4.188-2.938l2.355-1.652c6.89-3.954 14.226-2.083 20.957 1.403Z" fill="#C4CACD"/><path d="m103 65 1 4-7-2-.191 2.3c-.964 7.822-.964 7.822-3.29 10.24-1.769.897-1.769.897-5.519 1.46-3.25-1.875-3.25-1.875-6-4l-3 1 1.125 3.25C81 85 81 85 80.125 87.438L79 89c-1.576-2.886-2.463-5.533-3.125-8.75l-.508-2.422L75 76l6-4 1.355 1.094 1.832 1.406 1.793 1.406c2.37 1.49 2.37 1.49 7.02 1.094l3-11c4-1 4-1 7-1Z" fill="#C1C7CB"/><path d="M167 147c3.927 2.114 6.633 4.231 9 8 .798 4.031.904 8.176-.95 11.914-2.518 3.226-5.062 5.251-9.05 6.086-4.788-.02-8.428-.577-12-4l1-2 1.438 1.5c3.8 2.225 7.26 2.046 11.562 1.5 2.636-.727 2.636-.727 4-3 1.392-5.3 1.442-9.995-1-15-3.158-2.105-3.954-2.253-7.563-2.188l-2.378.02c-2.123.044-2.123.044-4.059 1.168l1-3c3.11-1.555 5.563-1.286 9-1Z" fill="#C8D0D4"/><path d="M158 133h1c-.355 6.269-.355 6.269-2.875 9.125-5.006 1.402-9.316-.483-14.125-2.125-.29 3.041-.29 3.041 1.563 5.188 1.694 3.314 1.934 5.303 1.363 8.94-1.633 3.302-4.676 4.078-7.992 5.278L135 160v3l2 2h-5v-6c.71-.315 1.42-.63 2.152-.953l2.786-1.297 2.777-1.266c2.39-1.272 2.39-1.272 3.226-3.437.073-2.52-.52-3.491-1.941-5.547-2.02-3.236-2.02-3.236-1.813-5.875C140 139 140 139 141 138c3.3.38 6.511.889 9.75 1.625 2.41.582 2.41.582 5.25-.625 1.225-3.008 1.225-3.008 2-6Z" fill="#D3DADE"/><path d="M72 121c1.563 1.188 1.563 1.188 3 3-.2 3.907-1.622 6.002-4 9v2c3.343.716 5.796 1.036 9.188.438C83 135 83 135 86 137l-1 13h-1l-1-12-2.738.324-3.575.363-3.55.387C70 139 70 139 68.078 137.66 67 136 67 136 67.062 133.75c.818-2.398 1.723-4.213 3-6.375 2.187-3.16 2.187-3.16 1.938-6.375Z" fill="#BBC2C6"/><path d="M138 165c3.015-.326 4.46-.431 6.875 1.5 1.627 3.616.876 6.747.125 10.5l-.563 3-.437 2c2.677-.496 4.203-1.137 6.5-2.688L153 178c2.313.813 2.313.813 4 2l-2.75.75c-3.396 1.306-4.81 2.64-7.25 5.25l-3 1c-2.688-1.938-2.688-1.938-5-4l1-4h2a367.08 367.08 0 0 0 1.063-4.313l.597-2.425c.539-2.422.539-2.422-.66-5.262l-5-1v-1Z" fill="#CBD3D8"/><path d="M118 68c5.098.098 5.098.098 7 2 .234 2.016.413 4.038.563 6.063l.253 3.347L126 82c3.383 1.128 4.768.818 8.188.063l2.73-.59L139 81l2 4-3-.563c-2.908-.437-5.35-.336-8.25.126C126 85 126 85 123 83c-.293-2.82-.293-2.82-.188-6.125l.083-3.32L123 71c-3.708.537-4.752.739-7.438 3.563C113 77 113 77 109.876 77.563 107 77 107 77 105.062 75.25 104 73 104 73 104.313 70.75L105 69l3 6c2.329-.045 2.329-.045 5-1l2.438-3.125L118 68Z" fill="#AFB5B9"/><path d="m119 70 5 1v12l8 2-2 2c-5.455-.455-5.455-.455-8-3-.414-2.82-.414-2.82-.625-6.125l-.227-3.32L121 72l-3.438 2.938-1.933 1.652A49.663 49.663 0 0 0 113 79c-2.69-.176-5.329-.618-8-1l-1-5 1.125 1.5c1.856 1.72 1.856 1.72 4.688 2.063 4.002-.707 5.16-2.234 7.597-5.348L119 70Z" fill="#E9EDF0"/><path d="m80 85 2 3c-1.375 2.5-1.375 2.5-4 5-4.027.61-8.3.85-12-1 1.033 3.38 1.658 4.764 4.625 6.813C73 101 73 101 73.325 103.026c-.011 1.994-.16 3.986-.325 5.973l-4 1 2-1c.407-2.322.744-4.657 1-7l-1.75-.75C67.59 99.772 65.864 98.417 64 96l1-5h13l2-6Z" fill="#E6EBEE"/><path d="M139 100c1.48.14 2.959.288 4.438.438l2.496.246C148 101 148 101 149 102c.04 2.333.042 4.667 0 7-1.29.672-2.581 1.337-3.875 2l-2.18 1.125C141 113 141 113 139 113c1.302 4.08 1.302 4.08 3 8-3.875-1.875-3.875-1.875-5-3-.04-2.333-.042-4.667 0-7 3.858-2.153 6.551-3.393 11-3v-5l-9-2v-1Z" fill="#B8BFC3"/><path d="m138.25 126.75 3.266.11L144 127v3c-1.792.168-3.583.334-5.375.5l-3.023.281C133 131 133 131 131 131c-.998 2.995-1.007 4.173-.563 7.188L131 142c-1.812-2.718-2.391-3.865-2.875-6.938l-.367-2.027C128 131 128 131 129.602 128.762c3.085-2.267 4.863-2.177 8.648-2.012Z" fill="#D7DEE2"/><path d="m172 178 7 2c-3 1-3 1-7 1l-.402 2.117-.536 2.758-.527 2.742C170 191 170 191 169 193h-7v-3h6l.621-2.371.816-3.066.81-3.06C171 179 171 179 172 178Z" fill="#ABB1B5"/><path d="M61 113h2l1 3c1.874.802 1.874.802 4.063 1.188l2.222.48L72 118v1c-7.429.143-7.429.143-11-1v-5Z" fill="#E1E7EB"/><path d="M142 121c1.938.813 1.938.813 4 2 1.208 3.623.543 4.641-1 8h-6v-1h5l1-6-3-1v-2Z" fill="#ADB3B7"/><path d="m140 179 4 5 6-1c-2.052 2.248-3.007 3.002-6 4-2.688-1.938-2.688-1.938-5-4l1-4Z" fill="#A9AFB3"/><path d="m96 141 7 1 2 5h-2l-1-3h-7l1-3Z" fill="#D7DFE4"/><path d="M72 121c1.563 1.188 1.563 1.188 3 3-.313 2.688-.313 2.688-1 5l-4 1 1-2.813c1.15-3.107 1.15-3.107 1-6.187Z" fill="#BFC5C9"/><path d="M161 149v2l-1.813.813c-2.16 1.172-3.545 2.38-5.187 4.187v-5c4.75-2 4.75-2 7-2Z" fill="#B7BDC1"/><path d="m121 70 3 1v9c-1.803-3.607-2.466-6.084-3-10Z" fill="#DDE4E8"/></svg>