<svg xmlns="http://www.w3.org/2000/svg" width="1em" height="1em" viewBox="0 0 2048 2048"><path fill="currentColor" d="M1188 794q45-43 69-99t25-119q0-63-24-119t-70-99l89-92q64 62 98 141t35 169q0 89-34 168t-99 142zm267-712q50 48 89 105t67 120 41 131 14 138q0 70-14 138t-41 131-66 120-90 105l-89-92q83-80 127-183t45-219q0-115-44-218t-128-184zM643 886q-64-62-98-141t-35-169q0-89 34-168t99-142l89 92q-45 43-69 99t-25 119q0 63 24 119t70 99zm-178 184q-50-48-89-105t-67-120-41-131-14-138q0-70 14-138t41-131 66-120 90-105l89 92q-83 80-127 183t-45 219q0 115 44 218t128 184zm687-494q0 45-19 84t-55 67l397 1193h-134l-86-256H665l-86 256H445L842 727q-35-27-54-66t-20-85q0-40 15-75t41-61 61-41 75-15 75 15 61 41 41 61 15 75m-192-64q-26 0-45 19t-19 45 19 45 45 19 45-19 19-45-19-45-45-19m0 266-125 374h250zm253 758-86-256H793l-86 256z"/></svg>